<svg width="1920" height="1930" viewBox="0 0 1920 1930" fill="none" xmlns="http://www.w3.org/2000/svg">
<mask id="mask0_41_239" style="mask-type:alpha" maskUnits="userSpaceOnUse" x="0" y="0" width="1920" height="1930">
<rect width="1920" height="1930" fill="white"/>
</mask>
<g mask="url(#mask0_41_239)">
<path d="M983.027 211.501C1035.93 51.0776 1257.21 105.561 1443.99 -18.1076C1630.77 -141.776 1830.48 -172.989 2029.63 -65.6725C2332.62 97.6023 2338.18 336.601 2126.56 620.693C1914.94 904.785 1760 856.5 1566.06 732.722C1372.12 608.945 897.5 900.971 897.5 649C897.5 560.941 681.238 592.885 711.141 490.837C741.043 388.788 930.122 371.924 983.027 211.501Z" fill="#F1F4F8"/>
<path d="M480.973 1570.5C428.068 1410.08 206.786 1464.56 20.0079 1340.89C-166.77 1217.22 -366.479 1186.01 -565.629 1293.33C-868.622 1456.6 -874.184 1695.6 -662.563 1979.69C-450.942 2263.79 -296 2215.5 -102.058 2091.72C91.8834 1967.94 566.5 2259.97 566.5 2008C566.5 1919.94 782.762 1951.88 752.859 1849.84C722.957 1747.79 533.878 1730.92 480.973 1570.5Z" fill="#F1F4F8"/>
</g>
</svg>
